<?xml version="1.0" standalone="no"?>
<!DOCTYPE svg PUBLIC "-//W3C//DTD SVG 1.1//EN" "http://www.w3.org/Graphics/SVG/1.1/DTD/svg11.dtd">
<svg t="1659311999770" class="icon" viewBox="0 0 1024 1024" version="1.1" xmlns="http://www.w3.org/2000/svg"
  p-id="18897" xmlns:xlink="http://www.w3.org/1999/xlink" width="200" height="200">
  <defs>
    <style type="text/css">
    </style>
  </defs>
  <path
    d="M512.50176 987.8784c-41.21088 0-88.23296-15.60064-139.76064-46.36672-40.31488-24.06912-82.5088-57.23136-118.81984-93.37856-61.1072-62.33088-108.64128-138.32192-137.78944-220.07808l-2.19136-6.144V165.31456l41.61024 0.33792A415.29856 415.29856 0 0 0 293.7856 142.0288l0.88064-0.29696A733.568 733.568 0 0 0 490.78784 43.75552l20.9152-14.72 21.41696 13.98272a967.69536 967.69536 0 0 0 197.73952 98.87232c34.69312 11.20768 66.69824 18.67264 95.3088 22.24128 12.00128 1.49504 22.70208 2.2528 31.81056 2.2528h0.00512c3.33824 0 6.2976-0.10752 8.86784-0.29184l1.37216-0.11776 42.83392-6.15936v462.07488l-2.176 6.13376c-29.10208 81.83296-76.6464 157.84448-137.50272 219.80672-36.61312 36.41856-78.79168 69.5552-119.05536 93.60384-51.57888 30.8224-98.62144 46.44352-139.82208 46.44352z m-2.00704-866.33472A809.66656 809.66656 0 0 1 318.44864 213.3504a492.09856 492.09856 0 0 1-124.32896 26.25024l-4.71552 0.37376v368.768l0.32256 0.86528c25.95328 69.71904 65.5104 132.02944 117.57056 185.18528 70.76352 70.3744 153.21088 117.62688 205.20448 117.62688 51.93728 0 134.38976-47.25248 205.17888-117.59616 52.15232-53.15072 91.6992-115.44576 117.60128-185.20064l0.32256-0.86016V240.95232l-4.6592-0.41984a406.92224 406.92224 0 0 1-14.1056-1.52064c-33.52576-4.17792-70.45632-12.75904-109.7728-25.50272l-1.23904-0.42496a1043.47136 1043.47136 0 0 1-189.8496-91.61728l-2.75968-1.69984-2.72384 1.77664zM319.7696 540.6208a37.4784 37.4784 0 0 1-11.04896-26.68032c0-10.07616 3.92192-19.55328 11.04896-26.68032 7.12704-7.12704 16.59904-11.04896 26.68032-11.04896s19.55328 3.92704 26.68032 11.04896l97.96608 97.96608 196.43904-196.44416c7.13216-7.12704 16.60416-11.04896 26.68544-11.04896s19.55328 3.92192 26.68032 11.04896c14.70976 14.71488 14.70976 38.65088 0 53.36064l-249.8048 249.8048-151.32672-151.32672z"
    p-id="18898">
  </path>
</svg>