<?xml version="1.0" standalone="no"?><!DOCTYPE svg PUBLIC "-//W3C//DTD SVG 1.1//EN" "http://www.w3.org/Graphics/SVG/1.1/DTD/svg11.dtd"><svg t="1659311850081" class="icon" viewBox="0 0 1024 1024" version="1.1" xmlns="http://www.w3.org/2000/svg" p-id="15481" xmlns:xlink="http://www.w3.org/1999/xlink" width="200" height="200"><defs><style type="text/css"></style></defs><path d="M625.834667 691.2h-256c-18.773333 0-34.133333 15.36-34.133334 34.133333s15.36 34.133333 34.133334 34.133334h256c18.773333 0 34.133333-15.36 34.133333-34.133334s-15.36-34.133333-34.133333-34.133333z" p-id="15482"></path><path d="M728.234667 102.4h-460.8c-56.490667 0-102.4 45.909333-102.4 102.4v614.4c0 56.490667 45.909333 102.4 102.4 102.4h460.8c56.490667 0 102.4-45.909333 102.4-102.4V204.8c0-56.490667-45.909333-102.4-102.4-102.4z m34.133333 716.8c0 18.773333-15.36 34.133333-34.133333 34.133333h-460.8c-18.773333 0-34.133333-15.36-34.133334-34.133333V204.8c0-18.773333 15.36-34.133333 34.133334-34.133333h460.8c18.773333 0 34.133333 15.36 34.133333 34.133333v614.4z" p-id="15483"></path></svg>