<?xml version="1.0" standalone="no"?><!DOCTYPE svg PUBLIC "-//W3C//DTD SVG 1.1//EN" "http://www.w3.org/Graphics/SVG/1.1/DTD/svg11.dtd"><svg t="1659311953211" class="icon" viewBox="0 0 1024 1024" version="1.1" xmlns="http://www.w3.org/2000/svg" p-id="17980" xmlns:xlink="http://www.w3.org/1999/xlink" width="200" height="200"><defs><style type="text/css"></style></defs><path d="M512 61.44c158.35136 0 286.72 128.36864 286.72 286.72v61.44a122.88 122.88 0 0 1 122.88 122.88v307.2a122.88 122.88 0 0 1-122.88 122.88H225.28a122.88 122.88 0 0 1-122.88-122.88V532.48a122.88 122.88 0 0 1 122.88-122.88v-61.44c0-158.35136 128.36864-286.72 286.72-286.72z m286.72 409.6H225.28a61.44 61.44 0 0 0-61.3376 57.83552L163.84 532.48v307.2a61.44 61.44 0 0 0 57.83552 61.3376L225.28 901.12h573.44a61.44 61.44 0 0 0 61.3376-57.83552L860.16 839.68V532.48a61.44 61.44 0 0 0-57.83552-61.3376L798.72 471.04z m-174.08 184.32a30.72 30.72 0 0 1 0 61.44h-225.28a30.72 30.72 0 0 1 0-61.44h225.28zM512 122.88c-122.44992 0-222.06464 97.6896-225.19808 219.38176L286.72 348.16v61.44h450.56v-61.44c0-122.44992-97.6896-222.06464-219.38176-225.19808L512 122.88z" fill="#131415" p-id="17981"></path></svg>